<svg width="19" height="17" viewBox="0 0 19 17" fill="none" xmlns="http://www.w3.org/2000/svg">
<path d="M13.5581 0.333313C13.8146 0.333313 14.1364 0.400651 14.3948 0.464027C15.296 0.681882 16.3645 0.95222 17.123 1.52162C17.829 2.0514 18.3776 2.9753 18.8015 3.91406C19.6828 5.86981 20.2958 8.47714 20.5077 10.4596C20.6087 11.4004 20.6334 12.347 20.4522 12.9838C20.3631 13.2967 20.17 13.5324 20.0343 13.677C19.6204 14.1156 19.0876 14.4434 18.5608 14.7415L18.2994 14.889C18.1272 14.9848 17.9539 15.0786 17.7795 15.1703L17.2626 15.4376L16.5526 15.7911L15.9812 16.0724C15.7721 16.1771 15.5327 16.2045 15.3054 16.1496C15.0781 16.0947 14.8775 15.9612 14.7392 15.7726C14.6009 15.584 14.5338 15.3526 14.5498 15.1192C14.5658 14.8859 14.6639 14.6658 14.8266 14.4979L14.3968 13.6383C13.161 14.0139 11.8759 14.2021 10.5844 14.1968C9.22771 14.1968 7.93345 13.9988 6.77189 13.6383L6.34311 14.4959C6.50646 14.6636 6.60513 14.8837 6.62163 15.1172C6.63812 15.3506 6.57137 15.5824 6.43321 15.7714C6.29505 15.9604 6.09442 16.0943 5.86692 16.1494C5.63942 16.2045 5.39976 16.1772 5.19046 16.0724L4.65176 15.805C4.05365 15.5099 3.45554 15.2148 2.87327 14.889C2.26525 14.5494 1.6206 14.1879 1.13835 13.676C0.945897 13.4814 0.802636 13.2438 0.720461 12.9828C0.538255 12.347 0.564001 11.4014 0.664017 10.4596C0.875931 8.47714 1.4889 5.86981 2.37121 3.91406C2.79405 2.9753 3.34265 2.0514 4.0487 1.52162C4.80723 0.95222 5.87571 0.681882 6.77684 0.464027C7.0353 0.400651 7.35614 0.333313 7.6136 0.333313C7.75602 0.333191 7.89679 0.363789 8.02631 0.423021C8.15582 0.482253 8.27104 0.568725 8.36409 0.676538C8.45715 0.784351 8.52585 0.910967 8.56552 1.04775C8.60519 1.18453 8.61489 1.32826 8.59395 1.46913C9.25293 1.37163 9.91821 1.32297 10.5844 1.32357C11.2686 1.32357 11.937 1.37308 12.5787 1.47012C12.5576 1.32918 12.5672 1.18534 12.6068 1.04844C12.6464 0.911531 12.7151 0.784787 12.8082 0.676861C12.9012 0.568935 13.0165 0.48237 13.1461 0.423079C13.2757 0.363788 13.4156 0.333169 13.5581 0.333313ZM14.8989 2.67328C14.7503 2.62575 14.7147 2.64654 14.6612 2.73566L14.5998 2.84657C14.4398 3.12093 14.1968 3.33741 13.9058 3.46483C13.6148 3.59225 13.2909 3.62403 12.9808 3.55559C12.1932 3.38653 11.3898 3.30221 10.5844 3.30407C9.74066 3.30407 8.93361 3.39319 8.18795 3.55559C7.87777 3.62403 7.55388 3.59225 7.26292 3.46483C6.97196 3.33741 6.72895 3.12093 6.56889 2.84657L6.50749 2.73665C6.45501 2.64753 6.41936 2.62674 6.27181 2.67328C5.91928 2.78518 5.54101 2.905 5.237 3.10602C4.9528 3.31892 4.57353 3.84871 4.17644 4.72904C3.41791 6.4095 2.82376 8.89206 2.63363 10.6705C2.59402 11.0459 2.57322 11.3677 2.56827 11.6331V11.9242C2.57223 12.1005 2.5851 12.2401 2.60293 12.3421C2.85445 12.5877 3.16539 12.7808 3.47732 12.958L4.15267 13.3314L4.59433 13.5641L4.95478 12.8432C4.78026 12.6806 4.67031 12.4604 4.64512 12.2232C4.61994 11.986 4.68122 11.7477 4.8177 11.5521C4.95418 11.3564 5.15669 11.2167 5.388 11.1584C5.61931 11.1002 5.86387 11.1273 6.07673 11.235C7.28088 11.84 8.84746 12.2163 10.5844 12.2163C12.3203 12.2163 13.8878 11.8381 15.092 11.236C15.2957 11.1339 15.5285 11.1052 15.7509 11.1548C15.9734 11.2044 16.1719 11.3292 16.3131 11.5081C16.4542 11.6871 16.5293 11.9092 16.5256 12.1371C16.522 12.365 16.4399 12.5846 16.2932 12.759L16.2139 12.8432L16.5744 13.566C16.8695 13.4135 17.1656 13.2521 17.4626 13.0878C17.8488 12.8739 18.2548 12.6491 18.5688 12.3421C18.5866 12.2401 18.5985 12.1005 18.6034 11.9242V11.6331C18.5954 11.3111 18.5736 10.9897 18.5381 10.6696C18.3479 8.89206 17.7538 6.4095 16.9952 4.72805C16.5991 3.84871 16.2189 3.31892 15.9357 3.10602C15.6307 2.905 15.2524 2.78518 14.8989 2.67328ZM7.36604 6.76995C7.82564 6.76995 8.26642 6.95253 8.59141 7.27751C8.9164 7.6025 9.09898 8.04328 9.09898 8.50289C9.09898 8.96249 8.9164 9.40327 8.59141 9.72826C8.26642 10.0533 7.82564 10.2358 7.36604 10.2358C6.90644 10.2358 6.46566 10.0533 6.14067 9.72826C5.81568 9.40327 5.6331 8.96249 5.6331 8.50289C5.6331 8.04328 5.81568 7.6025 6.14067 7.27751C6.46566 6.95253 6.90644 6.76995 7.36604 6.76995ZM13.8027 6.76995C14.2623 6.76995 14.7031 6.95253 15.028 7.27751C15.353 7.6025 15.5356 8.04328 15.5356 8.50289C15.5356 8.96249 15.353 9.40327 15.028 9.72826C14.7031 10.0533 14.2623 10.2358 13.8027 10.2358C13.3431 10.2358 12.9023 10.0533 12.5773 9.72826C12.2523 9.40327 12.0697 8.96249 12.0697 8.50289C12.0697 8.04328 12.2523 7.6025 12.5773 7.27751C12.9023 6.95253 13.3431 6.76995 13.8027 6.76995Z" fill="white"/>
</svg>
