<svg width="18" height="17" viewBox="0 0 18 17" fill="none" xmlns="http://www.w3.org/2000/svg">
<path d="M8.99999 0.666687C7.90564 0.666687 6.82201 0.882235 5.81096 1.30102C4.79991 1.71981 3.88125 2.33364 3.10743 3.10746C1.54463 4.67027 0.666656 6.78988 0.666656 9.00002C0.666656 12.6834 3.05832 15.8084 6.36666 16.9167C6.78332 16.9834 6.91666 16.725 6.91666 16.5V15.0917C4.60832 15.5917 4.11666 13.975 4.11666 13.975C3.73332 13.0084 3.19166 12.75 3.19166 12.75C2.43332 12.2334 3.24999 12.25 3.24999 12.25C4.08332 12.3084 4.52499 13.1084 4.52499 13.1084C5.24999 14.375 6.47499 14 6.94999 13.8C7.02499 13.2584 7.24166 12.8917 7.47499 12.6834C5.62499 12.475 3.68332 11.7584 3.68332 8.58335C3.68332 7.65835 3.99999 6.91669 4.54166 6.32502C4.45832 6.11669 4.16666 5.25002 4.62499 4.12502C4.62499 4.12502 5.32499 3.90002 6.91666 4.97502C7.57499 4.79169 8.29166 4.70002 8.99999 4.70002C9.70832 4.70002 10.425 4.79169 11.0833 4.97502C12.675 3.90002 13.375 4.12502 13.375 4.12502C13.8333 5.25002 13.5417 6.11669 13.4583 6.32502C14 6.91669 14.3167 7.65835 14.3167 8.58335C14.3167 11.7667 12.3667 12.4667 10.5083 12.675C10.8083 12.9334 11.0833 13.4417 11.0833 14.2167V16.5C11.0833 16.725 11.2167 16.9917 11.6417 16.9167C14.95 15.8 17.3333 12.6834 17.3333 9.00002C17.3333 7.90567 17.1178 6.82204 16.699 5.81099C16.2802 4.79994 15.6664 3.88129 14.8925 3.10746C14.1187 2.33364 13.2001 1.71981 12.189 1.30102C11.178 0.882235 10.0943 0.666687 8.99999 0.666687Z" fill="white"/>
</svg>
