<svg width="21" height="21" viewBox="0 0 21 21" fill="none" xmlns="http://www.w3.org/2000/svg">
<path d="M6.13333 0.333313H14.5333C17.7333 0.333313 20.3333 2.93331 20.3333 6.13331V14.5333C20.3333 16.0716 19.7223 17.5468 18.6345 18.6345C17.5468 19.7222 16.0716 20.3333 14.5333 20.3333H6.13333C2.93333 20.3333 0.333328 17.7333 0.333328 14.5333V6.13331C0.333328 4.59506 0.944398 3.1198 2.03211 2.03209C3.11982 0.944383 4.59507 0.333313 6.13333 0.333313ZM5.93333 2.33331C4.97855 2.33331 4.06287 2.7126 3.38774 3.38773C2.71261 4.06286 2.33333 4.97853 2.33333 5.93331V14.7333C2.33333 16.7233 3.94333 18.3333 5.93333 18.3333H14.7333C15.6881 18.3333 16.6038 17.954 17.2789 17.2789C17.954 16.6038 18.3333 15.6881 18.3333 14.7333V5.93331C18.3333 3.94331 16.7233 2.33331 14.7333 2.33331H5.93333ZM15.5833 3.83331C15.9148 3.83331 16.2328 3.96501 16.4672 4.19943C16.7016 4.43385 16.8333 4.75179 16.8333 5.08331C16.8333 5.41483 16.7016 5.73278 16.4672 5.9672C16.2328 6.20162 15.9148 6.33331 15.5833 6.33331C15.2518 6.33331 14.9339 6.20162 14.6994 5.9672C14.465 5.73278 14.3333 5.41483 14.3333 5.08331C14.3333 4.75179 14.465 4.43385 14.6994 4.19943C14.9339 3.96501 15.2518 3.83331 15.5833 3.83331ZM10.3333 5.33331C11.6594 5.33331 12.9312 5.8601 13.8689 6.79778C14.8065 7.73546 15.3333 9.00723 15.3333 10.3333C15.3333 11.6594 14.8065 12.9312 13.8689 13.8688C12.9312 14.8065 11.6594 15.3333 10.3333 15.3333C9.00725 15.3333 7.73548 14.8065 6.79779 13.8688C5.86011 12.9312 5.33333 11.6594 5.33333 10.3333C5.33333 9.00723 5.86011 7.73546 6.79779 6.79778C7.73548 5.8601 9.00725 5.33331 10.3333 5.33331ZM10.3333 7.33331C9.53768 7.33331 8.77462 7.64938 8.21201 8.21199C7.6494 8.7746 7.33333 9.53766 7.33333 10.3333C7.33333 11.129 7.6494 11.892 8.21201 12.4546C8.77462 13.0172 9.53768 13.3333 10.3333 13.3333C11.129 13.3333 11.892 13.0172 12.4546 12.4546C13.0173 11.892 13.3333 11.129 13.3333 10.3333C13.3333 9.53766 13.0173 8.7746 12.4546 8.21199C11.892 7.64938 11.129 7.33331 10.3333 7.33331Z" fill="white"/>
</svg>
