<svg width="31" height="31" viewBox="0 0 31 31" fill="none" xmlns="http://www.w3.org/2000/svg">
<path d="M9.03334 0.333313H21.6333C26.4333 0.333313 30.3333 4.23331 30.3333 9.03331V21.6333C30.3333 23.9407 29.4167 26.1536 27.7852 27.7851C26.1536 29.4167 23.9407 30.3333 21.6333 30.3333H9.03334C4.23334 30.3333 0.333344 26.4333 0.333344 21.6333V9.03331C0.333344 6.72593 1.24995 4.51305 2.88151 2.88148C4.51308 1.24992 6.72596 0.333313 9.03334 0.333313ZM8.73334 3.33331C7.30117 3.33331 5.92766 3.90224 4.91497 4.91494C3.90227 5.92763 3.33334 7.30114 3.33334 8.73331V21.9333C3.33334 24.9183 5.74834 27.3333 8.73334 27.3333H21.9333C23.3655 27.3333 24.739 26.7644 25.7517 25.7517C26.7644 24.739 27.3333 23.3655 27.3333 21.9333V8.73331C27.3333 5.74831 24.9183 3.33331 21.9333 3.33331H8.73334ZM23.2083 5.58331C23.7056 5.58331 24.1825 5.78086 24.5342 6.13249C24.8858 6.48412 25.0833 6.96103 25.0833 7.45831C25.0833 7.95559 24.8858 8.43251 24.5342 8.78414C24.1825 9.13577 23.7056 9.33331 23.2083 9.33331C22.7111 9.33331 22.2341 9.13577 21.8825 8.78414C21.5309 8.43251 21.3333 7.95559 21.3333 7.45831C21.3333 6.96103 21.5309 6.48412 21.8825 6.13249C22.2341 5.78086 22.7111 5.58331 23.2083 5.58331ZM15.3333 7.83331C17.3225 7.83331 19.2301 8.62349 20.6366 10.03C22.0432 11.4365 22.8333 13.3442 22.8333 15.3333C22.8333 17.3224 22.0432 19.2301 20.6366 20.6366C19.2301 22.0431 17.3225 22.8333 15.3333 22.8333C13.3442 22.8333 11.4366 22.0431 10.03 20.6366C8.62352 19.2301 7.83334 17.3224 7.83334 15.3333C7.83334 13.3442 8.62352 11.4365 10.03 10.03C11.4366 8.62349 13.3442 7.83331 15.3333 7.83331ZM15.3333 10.8333C14.1399 10.8333 12.9953 11.3074 12.1514 12.1513C11.3074 12.9952 10.8333 14.1398 10.8333 15.3333C10.8333 16.5268 11.3074 17.6714 12.1514 18.5153C12.9953 19.3592 14.1399 19.8333 15.3333 19.8333C16.5268 19.8333 17.6714 19.3592 18.5153 18.5153C19.3592 17.6714 19.8333 16.5268 19.8333 15.3333C19.8333 14.1398 19.3592 12.9952 18.5153 12.1513C17.6714 11.3074 16.5268 10.8333 15.3333 10.8333Z" fill="white"/>
</svg>
